<svg xmlns="http://www.w3.org/2000/svg" viewBox="0 0 512 512"><g fill="#abb8b9"><path d="M388.499 235.002H76.445c-3.913 0-7.111 3.199-7.111 7.11v28.447c0 3.913 3.198 7.109 7.111 7.109h359.11c3.911 0 7.11-3.196 7.11-7.109v-28.447c0-3.91-3.199-7.11-7.11-7.11h-47.056zM123.501 138.667h297.832c11.734 0 21.333-9.598 21.333-21.332V32.003c0-11.735-9.599-21.336-21.333-21.336H90.666c-11.734 0-21.333 9.601-21.333 21.336v85.332c0 11.733 9.599 21.332 21.333 21.332h32.835zM256 42.668l12.901 17.617 20.746 6.827-12.769 17.716-.085 21.838L256 99.996l-20.794 6.671-.084-21.838-12.77-17.716 20.746-6.827L256 42.668z"/></g><path fill="#ed8c18" d="M235.205 106.667L256 99.996l20.793 6.671.085-21.838 12.769-17.717-20.747-6.827L256 42.668l-12.902 17.617-20.746 6.827 12.769 17.717z"/><g fill="#000003"><path d="M421.333 0H90.666c-17.645 0-32 14.356-32 32.003v85.332c0 17.644 14.355 31.999 32 31.999h22.166v75H76.445c-9.802 0-17.778 7.975-17.778 17.777v28.447c0 9.802 7.975 17.776 17.778 17.776h43.516l118.192 88.117L82.123 492.78c-4.724 3.521-5.699 10.204-2.176 14.928a10.653 10.653 0 008.56 4.292c2.218 0 4.455-.689 6.368-2.115L256 389.757l161.124 120.127a10.623 10.623 0 006.368 2.115c3.254 0 6.467-1.483 8.56-4.292 3.522-4.724 2.548-11.407-2.175-14.928l-156.03-116.328 118.191-88.117h43.518c9.801 0 17.777-7.975 17.777-17.776v-28.447c0-9.802-7.976-17.777-17.777-17.777h-36.389v-75h22.166c17.645 0 32-14.354 32-31.999V32.003c0-17.647-14.355-32.003-32-32.003zM256 363.145l-100.344-74.812h200.69L256 363.145zm175.998-96.146H80.001v-21.33h351.997v21.33zm-54.166-42.665H134.168v-75h243.664v75zM421.333 128H90.666c-5.882 0-10.665-4.783-10.665-10.664v-10.667h28.994c5.893 0 10.667-4.776 10.667-10.667s-4.775-10.667-10.667-10.667H80.001v-53.33c0-5.883 4.783-10.669 10.665-10.669h330.666c5.881 0 10.665 4.785 10.665 10.669v10.663h-28.994c-5.892 0-10.667 4.776-10.667 10.667s4.776 10.667 10.667 10.667h28.994v53.334c.001 5.88-4.783 10.664-10.664 10.664z"/><path d="M292.982 56.979l-17.495-5.757-10.882-14.857a10.663 10.663 0 00-17.21 0l-10.882 14.857-17.495 5.757a10.666 10.666 0 00-5.32 16.37l10.769 14.942.071 18.417a10.67 10.67 0 0010.668 10.625 10.64 10.64 0 003.258-.51L256 111.199l17.535 5.626a10.665 10.665 0 0013.926-10.116l.071-18.418 10.769-14.942a10.666 10.666 0 00-5.319-16.37zm-24.758 21.613a10.673 10.673 0 00-2.013 6.196l-.028 7.272-6.924-2.221a10.667 10.667 0 00-6.518 0l-6.925 2.221-.027-7.272a10.673 10.673 0 00-2.015-6.196l-4.252-5.9 6.909-2.274a10.663 10.663 0 005.271-3.83L256 60.721l4.297 5.867a10.67 10.67 0 005.271 3.83l6.908 2.274-4.252 5.9zM372.359 42.671h-.256c-5.891 0-10.667 4.776-10.667 10.667s4.777 10.667 10.667 10.667h.256c5.892 0 10.667-4.776 10.667-10.667s-4.776-10.667-10.667-10.667zM139.898 85.337h-.256c-5.892 0-10.667 4.777-10.667 10.667 0 5.892 4.777 10.667 10.667 10.667h.256c5.892 0 10.667-4.776 10.667-10.667 0-5.89-4.776-10.667-10.667-10.667z"/></g></svg>